<?xml version="1.0" standalone="no"?>
<!DOCTYPE svg PUBLIC "-//W3C//DTD SVG 20010904//EN"
 "http://www.w3.org/TR/2001/REC-SVG-20010904/DTD/svg10.dtd">
<svg version="1.0" xmlns="http://www.w3.org/2000/svg"
 width="700.000000pt" height="700.000000pt" viewBox="0 0 700.000000 700.000000"
 preserveAspectRatio="xMidYMid meet">
<metadata>
Created by potrace 1.11, written by Peter Selinger 2001-2013
</metadata>
<g transform="translate(0.000000,700.000000) scale(0.100000,-0.100000)"
fill="#000000" stroke="none">
<path d="M3128 6995 c-2 -1 -43 -6 -93 -9 -49 -4 -99 -9 -110 -11 -11 -2 -42
-7 -70 -10 -43 -5 -200 -32 -285 -49 -119 -24 -465 -135 -565 -181 -16 -7 -70
-31 -120 -53 -114 -50 -268 -134 -412 -224 -62 -39 -113 -71 -113 -72 0 0 219
-1 488 -2 436 0 620 -5 762 -19 93 -10 146 -16 182 -21 21 -3 50 -6 65 -8 198
-26 596 -125 728 -181 17 -7 62 -25 100 -40 348 -137 712 -399 1113 -805 170
-171 236 -262 336 -465 186 -373 275 -658 322 -1020 16 -123 21 -451 9 -588
-12 -150 -16 -186 -19 -204 -8 -38 -19 -138 -16 -138 2 0 -1 -9 -7 -20 -6 -11
-14 -38 -17 -59 -17 -105 -108 -325 -183 -443 -33 -52 -119 -170 -133 -183 -3
-3 -30 -34 -60 -70 -71 -83 -64 -76 -140 -155 -251 -263 -808 -524 -1275 -599
-92 -15 -133 -18 -265 -20 -257 -4 -473 23 -715 89 -163 44 -347 124 -457 197
-31 21 -60 38 -63 38 -9 0 -99 74 -158 130 -82 76 -195 222 -253 325 -95 170
-159 336 -189 485 -8 41 -17 86 -20 100 -10 46 -6 238 5 302 16 85 46 172 82
238 64 116 198 276 269 320 113 69 316 117 453 106 88 -7 233 -51 294 -90 55
-35 116 -97 137 -142 24 -50 22 -172 -4 -274 -29 -117 -14 -168 73 -248 134
-121 269 -145 501 -86 185 47 319 175 408 389 27 67 45 120 52 156 3 13 10 48
16 78 12 61 16 207 6 263 -36 205 -128 390 -310 628 -103 134 -280 285 -427
363 -19 11 -57 31 -85 46 -155 83 -360 151 -545 179 -83 13 -483 3 -540 -13
-8 -3 -44 -9 -80 -14 -187 -28 -363 -78 -529 -150 -431 -186 -819 -593 -994
-1046 -60 -157 -109 -338 -123 -454 -3 -31 -8 -59 -10 -62 -15 -26 -23 -442
-11 -559 15 -133 17 -155 22 -176 3 -12 7 -39 10 -60 4 -21 11 -57 17 -79 5
-22 11 -47 13 -55 35 -172 144 -456 258 -670 162 -305 351 -540 607 -754 47
-39 87 -74 90 -77 3 -3 50 -40 106 -81 139 -103 316 -213 464 -290 111 -57
161 -81 288 -134 17 -8 47 -20 65 -28 188 -81 613 -186 857 -212 36 -3 79 -8
95 -11 61 -8 463 -10 547 -2 102 9 183 18 218 24 408 66 759 174 1135 350 285
133 605 366 875 635 183 182 184 183 303 337 329 423 552 907 661 1433 24 115
29 142 41 235 4 28 9 61 11 75 24 150 24 609 -1 800 -13 102 -17 132 -27 185
-6 33 -12 69 -13 80 -7 50 -59 256 -91 362 -63 210 -186 497 -298 693 -14 25
-33 59 -42 75 -46 83 -221 330 -299 424 -481 578 -1092 970 -1815 1165 -170
46 -327 73 -585 103 -46 5 -512 13 -517 8z"/>
</g>
</svg>
