<?xml version="1.0" standalone="no"?>
<!DOCTYPE svg PUBLIC "-//W3C//DTD SVG 20010904//EN"
 "http://www.w3.org/TR/2001/REC-SVG-20010904/DTD/svg10.dtd">
<svg version="1.0" xmlns="http://www.w3.org/2000/svg"
 width="362.000000pt" height="509.000000pt" viewBox="0 0 362.000000 509.000000"
 preserveAspectRatio="xMidYMid meet">
<g transform="translate(0.000000,509.000000) scale(0.100000,-0.100000)"
fill="#000000" stroke="none">
<path d="M1775 5018 c-44 -170 -261 -538 -494 -837 -61 -78 -111 -144 -111
-145 0 -2 69 27 153 64 183 82 351 139 510 174 128 29 369 66 431 66 30 0 37
3 32 16 -16 41 -410 624 -478 707 l-24 29 -19 -74z"/>
<path d="M2280 4143 c-200 -239 -347 -459 -447 -669 -51 -109 -113 -257 -108
-262 1 -2 87 22 190 53 103 31 188 55 190 53 2 -2 -31 -73 -74 -159 -139 -281
-230 -539 -270 -772 -22 -125 -49 -453 -38 -463 4 -4 64 20 134 53 71 34 129
60 131 58 2 -2 -10 -65 -27 -142 -66 -307 -95 -575 -94 -898 0 -261 8 -360 48
-611 38 -234 73 -374 94 -374 51 0 257 45 362 80 592 194 1047 687 1194 1292
78 320 71 646 -21 946 -104 341 -257 610 -703 1237 -101 143 -247 352 -323
465 -77 113 -143 206 -147 208 -5 2 -46 -41 -91 -95z"/>
<path d="M945 3772 c-569 -673 -821 -1121 -917 -1632 -32 -168 -32 -485 0
-652 70 -367 235 -682 495 -947 264 -268 594 -444 957 -511 113 -21 431 -40
464 -27 12 5 -1 34 -65 139 -173 284 -285 538 -349 791 -37 147 -80 376 -80
427 0 55 -12 55 -108 0 -50 -28 -95 -49 -101 -46 -11 7 -73 261 -96 391 -45
256 -64 576 -48 793 5 63 6 115 3 116 -3 2 -61 -20 -130 -50 l-125 -52 -8 31
c-9 36 -1 315 14 487 20 236 75 496 154 734 20 59 35 110 33 111 -2 2 -44 -44
-93 -103z"/>
</g>
</svg>
