<svg xmlns="http://www.w3.org/2000/svg" width="30" height="30" viewBox="0 0 30 30">
  <path fill-rule="evenodd" d="M28.3421053,-8.8817842e-15 L1.65789474,-8.8817842e-15 C0.742264757,-8.93785036e-15 -8.76965186e-15,0.742264757 -8.8817842e-15,1.65789474 L-8.8817842e-15,28.3421053 C-8.76965186e-15,29.2577352 0.742264757,30 1.65789474,30 L16.0263158,30 L16.0263158,18.4210526 L12.1052632,18.4210526 L12.1052632,13.8578947 L16.0052632,13.8578947 L16.0052632,10.5263158 C16.0052632,6.64736842 18.3684211,4.53684211 21.8263158,4.53684211 C23.0009866,4.54033221 24.1746167,4.6070956 25.3421053,4.73684211 L25.3421053,8.78421053 L22.9526316,8.78421053 C21.0736842,8.78421053 20.7105263,9.67368421 20.7105263,10.9842105 L20.7105263,13.8789474 L25.2105263,13.8789474 L24.6263158,18.4210526 L20.7105263,18.4210526 L20.7105263,30 L28.3421053,30 C29.2577352,30 30,29.2577352 30,28.3421053 L30,1.65789474 C30,0.742264757 29.2577352,-8.82571803e-15 28.3421053,-8.8817842e-15 Z"/>
</svg>
