<svg xmlns="http://www.w3.org/2000/svg" width="145" height="145" viewBox="0 0 145 145">
  <path d="M5,88.9775785 C2.19674999,88.7249641 0,86.3690213 0,83.5 C0,80.6309787 2.19674999,78.2750359 5,78.0224215 L5,78 L90.9576118,78 C104.447536,78 109.431983,78 114.404117,78.8090157 C119.2729,79.6012154 125.466932,81.0762815 129.383959,83.3015126 C133.448598,85.6106011 136.400746,88.365584 138.585514,91.5282645 C138.469835,91.360806 141.612469,95.5712213 142.762182,98.5211978 C143.944086,101.553774 145,105.455595 145,112.219391 C145,120.329653 143.176409,125.433113 139.509347,129.903265 C139.224622,130.250345 138.940491,130.582408 138.585514,130.987126 C138.528077,131.052612 137.966894,131.688652 137.819851,131.857713 C133.598279,136.711389 124.587731,141 116.446692,141 C108.946045,141 104.413984,139.070282 98.8857826,135.012504 C94.111491,131.508107 90.3149116,124.628246 90.3149116,117.757061 C90.3149116,111.141678 93.0615247,106.607306 97.2148019,103.593865 C99.9670582,101.596945 103.77173,100.703206 107.829691,100.703206 C111.048619,100.703206 115.533169,102.704518 117.76372,105.731628 C119.072394,107.507647 120.506203,109.768579 120.185175,112.383581 C120.024804,113.689918 119.216158,116.932633 116.742271,117.757061 C115.539389,118.157924 114.491058,118.292833 113.761417,118.107077 C112.558961,117.800949 111.647411,116.861033 111.455971,116.243927 C111.264531,115.62682 111.748822,115.032269 111.748822,113.808774 C111.748822,112.758153 111.243897,112.420209 110.782555,111.995663 C110.321214,111.571118 108.748833,111.025271 107.829691,111.025271 C106.532533,111.025271 104.523066,111.549418 103.804835,112.383581 C102.772753,113.582258 101.417302,114.928089 101.417302,117.757061 C101.417302,121.041441 103.350334,124.692644 105.480436,126.585091 C107.879079,128.716117 111.754356,130.078156 116.446692,130.078156 C121.262675,130.078156 127.223523,127.241063 129.383959,124.757141 C129.561535,124.552976 130.144924,123.891767 130.179629,123.852199 C130.461752,123.530543 130.673024,123.28363 130.869432,123.044209 C132.939425,120.520885 133.89761,117.839332 133.89761,112.219391 C133.89761,107.663218 132.74762,103.24104 130.869432,99.8820598 C129.90663,98.1601691 128.15569,96.5366527 126.441602,95.2752119 C123.782875,93.3185866 116.966003,89.3370625 107.975061,89 L5,89 L5,88.9775785 Z M0,61.5 C0,58.6309787 2.19674999,56.2750359 5,56.0224215 L5,56 L83.9750607,56 C92.966003,55.6629375 99.782875,51.6814134 102.441602,49.7247881 C104.15569,48.4633473 105.90663,46.8398309 106.869432,45.1179402 C108.74762,41.7589598 109.89761,37.3367818 109.89761,32.7806086 C109.89761,27.1606684 108.939425,24.4791146 106.869432,21.9557913 C106.673024,21.7163698 106.461752,21.4694567 106.179629,21.1478007 C106.144924,21.1082326 105.561535,20.4470245 105.383959,20.2428592 C103.223523,17.7589366 97.2626749,14.9218443 92.4466917,14.9218443 C87.7543556,14.9218443 83.8790786,16.2838831 81.480436,18.4149091 C79.3503336,20.3073559 77.4173019,23.9585589 77.4173019,27.2429389 C77.4173019,30.0719106 78.772753,31.4177425 79.8048355,32.6164185 C80.5230662,33.4505825 82.5325327,33.9747292 83.8296905,33.9747292 C84.7488331,33.9747292 86.3212139,33.4288825 86.7825554,33.0043366 C87.243897,32.5797908 87.748822,32.2418471 87.748822,31.1912255 C87.748822,29.9677306 87.2645312,29.3731801 87.4559711,28.7560733 C87.647411,28.1389665 88.5589608,27.1990508 89.7614166,26.8929231 C90.4910577,26.7071672 91.5393893,26.8420759 92.742271,27.2429389 C95.2161583,28.0673673 96.0248042,31.3100821 96.185175,32.6164185 C96.5062025,35.2314212 95.0723936,37.4923534 93.7637196,39.2683722 C91.5331688,42.2954825 87.0486194,44.2967936 83.8296905,44.2967936 C79.7717302,44.2967936 75.9670582,43.4030549 73.2148019,41.4061351 C69.0615247,38.3926943 66.3149116,33.8583217 66.3149116,27.2429389 C66.3149116,20.3717539 70.111491,13.4918932 74.8857826,9.9874957 C80.4139842,5.92971757 84.9460449,4 92.4466917,4 C100.587731,4 109.598279,8.28861073 113.819851,13.1422872 C113.966894,13.3113478 114.528077,13.9473882 114.585514,14.0128738 C114.940491,14.4175917 115.224622,14.7496547 115.509347,15.0967348 C119.176409,19.5668871 121,24.6703469 121,32.7806086 C121,39.544405 119.944086,43.4462263 118.762182,46.4788022 C117.612469,49.4287787 114.469835,53.639194 114.585514,53.4717355 C112.400746,56.634416 109.448598,59.3893989 105.383959,61.6984874 C101.466932,63.9237185 95.2729005,65.3987846 90.4041168,66.1909843 C85.4319832,67 80.4475356,67 66.9576118,67 L5,67 L5,66.9775785 C2.19674999,66.7249641 0,64.3690213 0,61.5 Z"/>
</svg>
