<svg xmlns="http://www.w3.org/2000/svg" width="32" height="32" viewBox="0 0 32 32">
  <defs>
    <linearGradient id="windfinder-a" x1="-8.756%" x2="110.677%" y1="14.012%" y2="77.399%">
      <stop offset="0%" stop-color="#5657AE"/>
      <stop offset="72.413%" stop-color="#476FB8"/>
      <stop offset="100%" stop-color="#476FB8"/>
    </linearGradient>
  </defs>
  <path fill="url(#windfinder-a)" d="M18.8713426,17.7560008 C17.9193758,18.4363715 18.1037432,19.9518392 19.2831203,21.1387788 C20.46178,22.325012 22.1913896,22.7354953 23.142639,22.054418 C23.142639,22.054418 21.6820479,21.0808449 20.7580591,20.2054769 C19.8340702,19.3315219 18.8713426,17.7567073 18.8713426,17.7560008 C18.7443659,16.6086257 17.3117527,16.0066778 15.6732507,16.4136285 C14.0347487,16.8205793 12.8065896,18.0817027 12.9335663,19.2297842 C12.9335663,19.2297842 14.5254385,18.4773492 15.7607714,18.1311585 C16.9967902,17.7849766 18.871247,17.7560022 18.8713426,17.7560008 C19.9488514,18.2222985 21.1963799,17.3080723 21.6569395,15.7148884 C22.1160644,14.1217045 21.6138966,12.4508043 20.5356704,11.9845066 C20.5356704,11.9845066 20.4058242,13.7098082 20.0937627,14.9306604 C19.7824186,16.1515127 18.8713426,17.7552943 18.8713426,17.7560008 Z M4,27 C7.02735485,20.0698266 14.907086,10.6138739 27.8558431,4.03201077 C28.8580267,3.52261583 24.2560169,9.03693973 25.6764346,24.585143 C15.9164434,25.7092031 15.6983591,25.7070836 4,27 Z"/>
</svg>
