<svg xmlns="http://www.w3.org/2000/svg" width="36" height="36" viewBox="0 0 36 36">
  <defs>
    <linearGradient id="windguru-a" x1="-8.756%" x2="110.677%" y1="30.595%" y2="64.773%">
      <stop offset="0%" stop-color="#5657AE"/>
      <stop offset="72.413%" stop-color="#476FB8"/>
      <stop offset="100%" stop-color="#476FB8"/>
    </linearGradient>
  </defs>
  <path fill="url(#windguru-a)" d="M19.4703781,27.9855022 C18.942569,28.0277745 16.733244,27.9714115 16.1307008,27.8962609 C11.2683174,27.3185406 7.209325,25.2331114 5.24288562,22.2975409 L5,21.9358787 L5.18216422,22.0486046 C8.71801839,24.1716091 11.6933673,25.308262 14.8462095,25.740378 C15.6122334,25.84371 17.6113689,25.8624977 18.2793044,25.7685594 C20.2550855,25.4867447 21.8898926,24.7916016 22.8801186,23.8099468 C23.1743839,23.5187383 23.5807502,22.992684 23.5387123,22.9551087 C23.5340414,22.9457149 23.2958267,23.049047 23.0202449,23.1805605 C22.0673859,23.6314642 21.0724891,23.9038851 19.9187823,24.0260048 C19.1667711,24.1058523 17.4058503,24.0541863 16.6211429,23.9367635 C12.123088,23.2416204 8.54052505,20.897861 7.6624001,18.0750164 C7.13926184,16.3982186 7.61102045,14.5758165 9.03096718,12.8003835 C10.3107876,11.2034331 12.2398599,10.0667803 14.6827288,9.46557543 C17.8495837,8.69058483 21.6610196,8.89255208 24.9820134,10.0010235 C27.588363,10.8746492 29.8257133,12.2931169 31.1989512,13.9323394 C31.5025582,14.2986986 32.0397091,15.0502046 31.9976712,15.0502046 C31.9883295,15.0502046 31.740773,14.9046003 31.4465077,14.7308146 C28.1862353,12.772202 25.0614183,11.6261553 21.9225887,11.2363115 C21.114527,11.1376764 19.2788721,11.1611609 18.484823,11.2832806 C16.7612692,11.5510047 15.3553351,12.1381188 14.3370839,13.0164414 C14.0474895,13.2700747 13.5150095,13.9041579 13.5150095,14.0027931 C13.5150095,14.0356715 13.6971737,13.9699147 13.9680846,13.8430981 C15.4721071,13.1385612 17.1162559,12.8379588 19.1434167,12.9037155 C21.8291712,12.9929569 23.9404078,13.6458277 25.9909229,15.031417 C27.1119335,15.7876199 27.6490844,16.2338266 28.1628809,16.8444253 C29.9144599,18.90637 30.0359027,21.165585 28.5225385,23.4811629 C27.9900584,24.2937288 27.4575784,24.8855398 26.7289216,25.4773509 C24.9633299,26.9052123 22.5578281,27.7365659 19.4703781,27.9855022 Z"/>
</svg>
