<svg xmlns="http://www.w3.org/2000/svg" width="36" height="36" viewBox="0 0 36 36">
  <defs>
    <linearGradient id="windy-a" x1="-8.756%" x2="110.677%" y1="10.814%" y2="79.833%">
      <stop offset="0%" stop-color="#5657AE"/>
      <stop offset="72.413%" stop-color="#476FB8"/>
      <stop offset="100%" stop-color="#476FB8"/>
    </linearGradient>
  </defs>
  <path fill="url(#windy-a)" d="M16.9324604,23.8209933 L16.930357,23.8212272 C16.8955353,23.8235668 16.8604799,23.8235668 16.8258919,23.8212272 L16.6167281,23.8212272 C16.5519924,23.8149104 16.4881916,23.8027445 16.4255593,23.7854316 C16.2944521,23.7472964 16.1694212,23.6895087 16.0551405,23.614876 C15.7887195,23.434962 15.5561854,23.2091922 15.3682884,22.9480946 C14.9529988,22.3624968 14.6288532,21.7172397 14.4061346,21.0343152 C14.2895169,20.7006906 14.1901933,20.3614509 14.1076962,20.0175322 C14.086663,19.9368165 14.0686679,19.850018 14.0509065,19.7695363 L14.0240307,19.6408592 L13.9999593,19.518265 L13.9553221,19.2700352 C13.9434033,19.1862781 13.9165275,19.0994795 13.9165275,19.0159564 C13.8118287,18.3400507 13.7403157,17.6613374 13.6774496,17.0631059 C13.5519513,15.8313151 13.4804383,14.7967512 13.4297248,14.0728841 L13.3757395,13.235781 L13.3579781,12.9367822 L13.3519018,12.9276578 L13.3519018,12.8230785 C13.2521108,12.1212034 12.6028848,11.6331662 11.9017768,11.7330665 C11.2006688,11.8329667 10.7131651,12.482903 10.8129561,13.1847781 L10.8547889,13.4837769 L10.9802872,14.3330458 C11.0908286,15.0658034 11.2520834,16.1062162 11.4848513,17.3623387 C11.6133877,17.9902829 11.7360816,18.6689961 11.9122934,19.4045612 C11.9361311,19.4974427 11.9569306,19.5870488 11.981002,19.6827377 L12.0585913,19.9817365 C12.0735482,20.029698 12.0854671,20.074384 12.1004241,20.1281945 L12.145295,20.2718449 C12.1752089,20.3794658 12.2079273,20.4723472 12.2408794,20.5706097 C12.3764269,20.9652975 12.5320729,21.3522646 12.7066488,21.7310432 C12.888002,22.1261989 13.0934267,22.5096566 13.3222216,22.8793109 C13.5634028,23.2725949 13.8412752,23.6420151 14.1523334,23.9826585 C14.4912023,24.361905 14.8959753,24.6758772 15.3472552,24.9096016 C15.5987192,25.0347693 15.8674773,25.1218018 16.1448824,25.1669558 C16.2869736,25.1901176 16.4309344,25.2008797 16.5748953,25.1999439 L16.7719066,25.1999439 L16.9752279,25.1758462 C17.0444039,25.1664878 17.1131125,25.1533862 17.18112,25.1370091 C17.2470241,25.1220358 17.3096564,25.104021 17.3725225,25.0860062 C17.4351548,25.0682253 17.4977871,25.0471691 17.557615,25.0263468 C17.6174429,25.0052906 17.6772707,24.9844682 17.7338268,24.957563 C17.8188945,24.9212995 17.9027938,24.8819945 17.9852909,24.839882 C18.291675,25.0151168 18.6324135,25.1239074 18.9853046,25.1578314 L19.591763,25.1578314 C19.6604715,25.1458995 19.7291801,25.1339676 19.7948506,25.1189943 C19.9254904,25.0883458 20.0533257,25.0474031 20.1771881,24.9964001 C20.4083201,24.9007112 20.6270657,24.7774151 20.8285175,24.6286176 C21.1860825,24.3590975 21.5055541,24.0420839 21.7780514,23.6867012 C22.2636855,23.0458892 22.6792088,22.3552441 23.017844,21.6264638 C23.3494681,20.9386262 23.6243024,20.2538301 23.8631465,19.6109125 C24.1022244,18.9679949 24.3083501,18.3461336 24.4843282,17.7719998 C24.8369855,16.6234982 25.0849441,15.657718 25.2522752,14.9820463 C25.3326689,14.6439764 25.3955349,14.3779658 25.4373677,14.1954782 L25.5,13.9175357 L25.4074538,14.1865878 C25.3478596,14.3510606 25.2581177,14.6233881 25.138462,14.9490581 C24.8996179,15.6039076 24.5502324,16.5341261 24.0811911,17.6255418 C23.8451514,18.1666875 23.5791978,18.7586022 23.2777214,19.3626827 C22.9760112,19.9667632 22.6415827,20.5947074 22.256207,21.2135273 C21.8790109,21.8398339 21.4363781,22.4242619 20.9360207,22.957219 C20.7002147,23.2054488 20.431924,23.4206905 20.1383935,23.5968612 C20.0105581,23.6712599 19.8743095,23.7295156 19.7319845,23.7704583 C19.669586,23.7875372 19.6055514,23.7994691 19.5410495,23.8064879 L19.3599299,23.8064879 C19.3823654,23.78356 19.4050345,23.760632 19.42747,23.7377041 C20.0072863,23.1294124 20.5256388,22.4654385 20.9748153,21.754907 C21.4109045,21.0790013 21.7871658,20.4124539 22.1185562,19.7606459 C22.4501802,19.10837 22.7402052,18.4925915 22.9909682,17.9123748 C23.4927278,16.7552167 23.8451514,15.7653389 24.0692723,15.0658034 C24.1884607,14.7005943 24.2882517,14.3293024 24.3679443,13.9533313 C24.2496908,14.3173706 24.1120399,14.674625 23.9559265,15.0236909 C23.6659015,15.6818157 23.2059746,16.6267736 22.6086306,17.7151479 C22.3069205,18.259569 21.9722583,18.8395518 21.5749638,19.4375494 C21.1779029,20.035547 20.7595752,20.6485179 20.2816532,21.2465154 C19.8053672,21.856211 19.2701881,22.4170091 18.6835944,22.9211894 C18.5821674,23.0070521 18.4774687,23.0894055 18.3697317,23.1673136 C18.3092027,23.0732624 18.2561522,22.9738301 18.2117487,22.8704204 C18.0759675,22.5660406 17.9689316,22.2497289 17.8920435,21.9252287 C17.8086116,21.5873928 17.739903,21.2406665 17.6889559,20.8937062 C17.6384761,20.5469799 17.5964096,20.1969782 17.5606531,19.8530594 L17.5127441,19.3388189 L17.4769876,18.8454008 C17.4323504,18.1905513 17.4290785,17.5714974 17.4323504,16.9943222 C17.4351548,16.4171469 17.4559543,15.8851256 17.4800257,15.4155711 C17.5038634,14.9460167 17.5337773,14.5363556 17.5606531,14.1985197 C17.5875289,13.8606838 17.6144047,13.5974807 17.6321661,13.421076 L17.6620801,13.1548314 L17.6562375,13.1251187 L17.6562375,13.0114149 C17.6658193,12.5526226 17.430247,12.1235429 17.0378603,11.8856073 C16.6457072,11.6481395 16.1568012,11.6378454 15.7550663,11.8587021 C15.3533315,12.0797927 15.0999977,12.4985782 15.090416,12.9576045 L15.090416,13.2566033 C15.090416,13.4538302 15.0871441,13.7350482 15.090416,14.0939403 C15.0934541,14.4528324 15.1023348,14.8891648 15.1200962,15.3856244 C15.1380913,15.8820841 15.1680052,16.4470935 15.2187187,17.0602984 C15.2696659,17.6732693 15.3383745,18.3400507 15.4458777,19.0489445 L15.5353858,19.5870488 L15.5860993,19.8530594 L15.6400846,20.125153 C15.7146358,20.490128 15.7980676,20.8637596 15.8938857,21.2465154 C15.9894701,21.6295053 16.1028159,22.0181101 16.2463093,22.4158394 C16.3926072,22.8315834 16.5788682,23.2318861 16.8018206,23.6118345 C16.8434196,23.6827239 16.887122,23.7524435 16.9324604,23.8209933 M18.0001174,30 C11.3727665,30 6,24.6272335 6,17.9998826 C6,11.372297 11.3727665,6 18.0001174,6 C24.627703,6 30,11.372297 30,17.9998826 C30,24.6272335 24.627703,30 18.0001174,30"/>
</svg>
