<svg xmlns="http://www.w3.org/2000/svg" width="32" height="32" viewBox="0 0 32 32">
  <defs>
    <linearGradient id="windy-a" x1="-8.756%" x2="110.677%" y1="10.814%" y2="79.833%">
      <stop offset="0%" stop-color="#7172BA"/>
      <stop offset="72.413%" stop-color="#6586C3"/>
      <stop offset="100%" stop-color="#6586C3"/>
    </linearGradient>
  </defs>
  <path fill="url(#windy-a)" d="M14.9324604,21.8209933 L14.930357,21.8212272 C14.8955353,21.8235668 14.8604799,21.8235668 14.8258919,21.8212272 L14.6167281,21.8212272 C14.5519924,21.8149104 14.4881916,21.8027445 14.4255593,21.7854316 C14.2944521,21.7472964 14.1694212,21.6895087 14.0551405,21.614876 C13.7887195,21.434962 13.5561854,21.2091922 13.3682884,20.9480946 C12.9529988,20.3624968 12.6288532,19.7172397 12.4061346,19.0343152 C12.2895169,18.7006906 12.1901933,18.3614509 12.1076962,18.0175322 C12.086663,17.9368165 12.0686679,17.850018 12.0509065,17.7695363 L12.0240307,17.6408592 L11.9999593,17.518265 L11.9553221,17.2700352 C11.9434033,17.1862781 11.9165275,17.0994795 11.9165275,17.0159564 C11.8118287,16.3400507 11.7403157,15.6613374 11.6774496,15.0631059 C11.5519513,13.8313151 11.4804383,12.7967512 11.4297248,12.0728841 L11.3757395,11.235781 L11.3579781,10.9367822 L11.3519018,10.9276578 L11.3519018,10.8230785 C11.2521108,10.1212034 10.6028848,9.63316621 9.90177679,9.73306645 C9.20066881,9.83296666 8.71316506,10.482903 8.81295607,11.1847781 L8.85478885,11.4837769 L8.98028719,12.3330458 C9.09082855,13.0658034 9.25208338,14.1062162 9.48485125,15.3623387 C9.61338772,15.9902829 9.7360816,16.6689961 9.91229341,17.4045612 C9.93613108,17.4974427 9.95693062,17.5870488 9.98100199,17.6827377 L10.0585913,17.9817365 C10.0735482,18.029698 10.0854671,18.074384 10.1004241,18.1281945 L10.145295,18.2718449 C10.1752089,18.3794658 10.2079273,18.4723472 10.2408794,18.5706097 C10.3764269,18.9652975 10.5320729,19.3522646 10.7066488,19.7310432 C10.888002,20.1261989 11.0934267,20.5096566 11.3222216,20.8793109 C11.5634028,21.2725949 11.8412752,21.6420151 12.1523334,21.9826585 C12.4912023,22.361905 12.8959753,22.6758772 13.3472552,22.9096016 C13.5987192,23.0347693 13.8674773,23.1218018 14.1448824,23.1669558 C14.2869736,23.1901176 14.4309344,23.2008797 14.5748953,23.1999439 L14.7719066,23.1999439 L14.9752279,23.1758462 C15.0444039,23.1664878 15.1131125,23.1533862 15.18112,23.1370091 C15.2470241,23.1220358 15.3096564,23.104021 15.3725225,23.0860062 C15.4351548,23.0682253 15.4977871,23.0471691 15.557615,23.0263468 C15.6174429,23.0052906 15.6772707,22.9844682 15.7338268,22.957563 C15.8188945,22.9212995 15.9027938,22.8819945 15.9852909,22.839882 C16.291675,23.0151168 16.6324135,23.1239074 16.9853046,23.1578314 L17.591763,23.1578314 C17.6604715,23.1458995 17.7291801,23.1339676 17.7948506,23.1189943 C17.9254904,23.0883458 18.0533257,23.0474031 18.1771881,22.9964001 C18.4083201,22.9007112 18.6270657,22.7774151 18.8285175,22.6286176 C19.1860825,22.3590975 19.5055541,22.0420839 19.7780514,21.6867012 C20.2636855,21.0458892 20.6792088,20.3552441 21.017844,19.6264638 C21.3494681,18.9386262 21.6243024,18.2538301 21.8631465,17.6109125 C22.1022244,16.9679949 22.3083501,16.3461336 22.4843282,15.7719998 C22.8369855,14.6234982 23.0849441,13.657718 23.2522752,12.9820463 C23.3326689,12.6439764 23.3955349,12.3779658 23.4373677,12.1954782 L23.5,11.9175357 L23.4074538,12.1865878 C23.3478596,12.3510606 23.2581177,12.6233881 23.138462,12.9490581 C22.8996179,13.6039076 22.5502324,14.5341261 22.0811911,15.6255418 C21.8451514,16.1666875 21.5791978,16.7586022 21.2777214,17.3626827 C20.9760112,17.9667632 20.6415827,18.5947074 20.256207,19.2135273 C19.8790109,19.8398339 19.4363781,20.4242619 18.9360207,20.957219 C18.7002147,21.2054488 18.431924,21.4206905 18.1383935,21.5968612 C18.0105581,21.6712599 17.8743095,21.7295156 17.7319845,21.7704583 C17.669586,21.7875372 17.6055514,21.7994691 17.5410495,21.8064879 L17.3599299,21.8064879 C17.3823654,21.78356 17.4050345,21.760632 17.42747,21.7377041 C18.0072863,21.1294124 18.5256388,20.4654385 18.9748153,19.754907 C19.4109045,19.0790013 19.7871658,18.4124539 20.1185562,17.7606459 C20.4501802,17.10837 20.7402052,16.4925915 20.9909682,15.9123748 C21.4927278,14.7552167 21.8451514,13.7653389 22.0692723,13.0658034 C22.1884607,12.7005943 22.2882517,12.3293024 22.3679443,11.9533313 C22.2496908,12.3173706 22.1120399,12.674625 21.9559265,13.0236909 C21.6659015,13.6818157 21.2059746,14.6267736 20.6086306,15.7151479 C20.3069205,16.259569 19.9722583,16.8395518 19.5749638,17.4375494 C19.1779029,18.035547 18.7595752,18.6485179 18.2816532,19.2465154 C17.8053672,19.856211 17.2701881,20.4170091 16.6835944,20.9211894 C16.5821674,21.0070521 16.4774687,21.0894055 16.3697317,21.1673136 C16.3092027,21.0732624 16.2561522,20.9738301 16.2117487,20.8704204 C16.0759675,20.5660406 15.9689316,20.2497289 15.8920435,19.9252287 C15.8086116,19.5873928 15.739903,19.2406665 15.6889559,18.8937062 C15.6384761,18.5469799 15.5964096,18.1969782 15.5606531,17.8530594 L15.5127441,17.3388189 L15.4769876,16.8454008 C15.4323504,16.1905513 15.4290785,15.5714974 15.4323504,14.9943222 C15.4351548,14.4171469 15.4559543,13.8851256 15.4800257,13.4155711 C15.5038634,12.9460167 15.5337773,12.5363556 15.5606531,12.1985197 C15.5875289,11.8606838 15.6144047,11.5974807 15.6321661,11.421076 L15.6620801,11.1548314 L15.6562375,11.1251187 L15.6562375,11.0114149 C15.6658193,10.5526226 15.430247,10.1235429 15.0378603,9.8856073 C14.6457072,9.64813954 14.1568012,9.63784537 13.7550663,9.85870207 C13.3533315,10.0797927 13.0999977,10.4985782 13.090416,10.9576045 L13.090416,11.2566033 C13.090416,11.4538302 13.0871441,11.7350482 13.090416,12.0939403 C13.0934541,12.4528324 13.1023348,12.8891648 13.1200962,13.3856244 C13.1380913,13.8820841 13.1680052,14.4470935 13.2187187,15.0602984 C13.2696659,15.6732693 13.3383745,16.3400507 13.4458777,17.0489445 L13.5353858,17.5870488 L13.5860993,17.8530594 L13.6400846,18.125153 C13.7146358,18.490128 13.7980676,18.8637596 13.8938857,19.2465154 C13.9894701,19.6295053 14.1028159,20.0181101 14.2463093,20.4158394 C14.3926072,20.8315834 14.5788682,21.2318861 14.8018206,21.6118345 C14.8434196,21.6827239 14.887122,21.7524435 14.9324604,21.8209933 M16.0001174,28 C9.37276648,28 4,22.6272335 4,15.9998826 C4,9.37229704 9.37276648,4 16.0001174,4 C22.627703,4 28,9.37229704 28,15.9998826 C28,22.6272335 22.627703,28 16.0001174,28"/>
</svg>
