<svg xmlns="http://www.w3.org/2000/svg" width="32" height="32" viewBox="0 0 32 32">
  <defs>
    <linearGradient id="windguru-a" x1="-8.756%" x2="110.677%" y1="30.595%" y2="64.773%">
      <stop offset="0%" stop-color="#5657AE"/>
      <stop offset="72.413%" stop-color="#476FB8"/>
      <stop offset="100%" stop-color="#476FB8"/>
    </linearGradient>
  </defs>
  <path fill="url(#windguru-a)" d="M17.4703781,25.9855022 C16.942569,26.0277745 14.733244,25.9714115 14.1307008,25.8962609 C9.26831744,25.3185406 5.209325,23.2331114 3.24288562,20.2975409 L3,19.9358787 L3.18216422,20.0486046 C6.71801839,22.1716091 9.69336728,23.308262 12.8462095,23.740378 C13.6122334,23.84371 15.6113689,23.8624977 16.2793044,23.7685594 C18.2550855,23.4867447 19.8898926,22.7916016 20.8801186,21.8099468 C21.1743839,21.5187383 21.5807502,20.992684 21.5387123,20.9551087 C21.5340414,20.9457149 21.2958267,21.049047 21.0202449,21.1805605 C20.0673859,21.6314642 19.0724891,21.9038851 17.9187823,22.0260048 C17.1667711,22.1058523 15.4058503,22.0541863 14.6211429,21.9367635 C10.123088,21.2416204 6.54052505,18.897861 5.6624001,16.0750164 C5.13926184,14.3982186 5.61102045,12.5758165 7.03096718,10.8003835 C8.31078758,9.20343313 10.2398599,8.06678025 12.6827288,7.46557543 C15.8495837,6.69058483 19.6610196,6.89255208 22.9820134,8.00102348 C25.588363,8.87464924 27.8257133,10.2931169 29.1989512,11.9323394 C29.5025582,12.2986986 30.0397091,13.0502046 29.9976712,13.0502046 C29.9883295,13.0502046 29.740773,12.9046003 29.4465077,12.7308146 C26.1862353,10.772202 23.0614183,9.62615527 19.9225887,9.23631152 C19.114527,9.13767635 17.2788721,9.16116092 16.484823,9.28328065 C14.7612692,9.55100467 13.3553351,10.1381188 12.3370839,11.0164414 C12.0474895,11.2700747 11.5150095,11.9041579 11.5150095,12.0027931 C11.5150095,12.0356715 11.6971737,11.9699147 11.9680846,11.8430981 C13.4721071,11.1385612 15.1162559,10.8379588 17.1434167,10.9037155 C19.8291712,10.9929569 21.9404078,11.6458277 23.9909229,13.031417 C25.1119335,13.7876199 25.6490844,14.2338266 26.1628809,14.8444253 C27.9144599,16.90637 28.0359027,19.165585 26.5225385,21.4811629 C25.9900584,22.2937288 25.4575784,22.8855398 24.7289216,23.4773509 C22.9633299,24.9052123 20.5578281,25.7365659 17.4703781,25.9855022 Z"/>
</svg>
