<svg xmlns="http://www.w3.org/2000/svg" width="36" height="36" viewBox="0 0 36 36">
  <defs>
    <linearGradient id="windfinder-a" x1="-8.756%" x2="110.677%" y1="14.012%" y2="77.399%">
      <stop offset="0%" stop-color="#5657AE"/>
      <stop offset="72.413%" stop-color="#476FB8"/>
      <stop offset="100%" stop-color="#476FB8"/>
    </linearGradient>
  </defs>
  <path fill="url(#windfinder-a)" d="M6,29 C9.02735485,22.0698266 16.907086,12.6138739 29.8558431,6.03201077 C30.8580267,5.52261583 26.2560169,11.0369397 27.6764346,26.585143 C17.9164434,27.7092031 17.6983591,27.7070836 6,29 Z M20.8713426,19.7560008 C20.7443659,18.6086257 19.3117527,18.0066778 17.6732507,18.4136285 C16.0347487,18.8205793 14.8065896,20.0817027 14.9335663,21.2297842 C14.9335663,21.2297842 16.5254385,20.4773492 17.7607714,20.1311585 C18.9968217,19.7849677 20.8713426,19.7560008 20.8713426,19.7560008 C19.9193758,20.4363715 20.1037432,21.9518392 21.2831203,23.1387788 C22.46178,24.325012 24.1913896,24.7354953 25.142639,24.054418 C25.142639,24.054418 23.6820479,23.0808449 22.7580591,22.2054769 C21.8340702,21.3315219 20.8713426,19.7567073 20.8713426,19.7560008 Z M22.0937627,16.9306604 C21.7824186,18.1515127 20.8713426,19.7552943 20.8713426,19.7560008 C21.9488514,20.2222985 23.1963799,19.3080723 23.6569395,17.7148884 C24.1160644,16.1217045 23.6138966,14.4508043 22.5356704,13.9845066 C22.5356704,13.9845066 22.4058242,15.7098082 22.0937627,16.9306604 Z"/>
</svg>
