<svg xmlns="http://www.w3.org/2000/svg" width="16" height="16" viewBox="0 0 16 16">
  <path fill="#353438" d="M7.98927498 8C8.33116554 8 8.61294642 8.25736013 8.65145649 8.58891925L8.65594165 8.66666667 8.65600469 10.4259152C8.98775156 10.4817898 9.30630552 10.5786967 9.60707256 10.711522L10.5425539 9.22590081C10.7386883 8.91427964 11.150289 8.82069599 11.4618898 9.01683037 11.7512523 9.19895516 11.8526131 9.56686466 11.7085807 9.867979L11.6709602 9.93616624 10.7246431 11.4405174C11.0101279 11.6993968 11.2626623 11.9979697 11.4748741 12.3280292L13.0785257 11.7288059C13.4234224 11.599926 13.8074942 11.7750423 13.936374 12.119939 14.0560482 12.4402003 13.9136032 12.79424 13.6164997 12.9463715L13.5452409 12.9777873 12.0262343 13.5454752C12.1291941 13.9026674 12.1914694 14.2785191 12.2074115 14.6667423L15.3333333 14.6666667C15.7015232 14.6666667 16 14.9651435 16 15.3333333 16 15.6752239 15.7426399 15.9570048 15.4110808 15.9955148L15.3333333 16 .666666667 16C.298476833 16-1.77635684e-15 15.7015232-1.77635684e-15 15.3333333-1.77635684e-15 14.9914428.257360127 14.7096619.58891925 14.6711518L.666666667 14.6666667 3.77113843 14.6667423C3.78708058 14.2785191 3.84935587 13.9026674 3.95231568 13.5454752L2.43330909 12.9777873C2.08841237 12.8489075 1.91329609 12.4648357 2.04217593 12.119939 2.17105576 11.7750423 2.55512754 11.599926 2.90002425 11.7288059L4.50367584 12.3280292C4.71588763 11.9979697 4.96842206 11.6993968 5.25390684 11.4405174L4.30758976 9.93616624C4.11145537 9.62456544 4.20503902 9.21296475 4.5166602 9.01683037 4.82826099 8.82069599 5.23986168 8.91427964 5.43599606 9.22590081L6.37165737 10.7114425C6.67216992 10.5787471 6.99043754 10.4819086 7.3218782 10.4260276L7.32260831 8.66666667C7.32260831 8.29847683 7.62108515 8 7.98927498 8zM7.98927498 11.7037037C6.4656195 11.7037037 5.20021138 13.003942 5.10601054 14.6668726L10.8725394 14.6668726C10.7783386 13.003942 9.51293046 11.7037037 7.98927498 11.7037037zM8 7.59392549e-14C8.18633998 7.59392549e-14 8.35482403.0764502865 8.4757977.199696394L8.48056168.204600746 11.0445942 2.87126741C11.2997862 3.1366743 11.2915054 3.55870305 11.0260985 3.81389501 10.7811075 4.04945682 10.4026636 4.06052111 10.1451757 3.85207974L10.0834709 3.79539925 8.66651692 2.322 8.66666667 5.66666667C8.66666667 6.00855723 8.40930654 6.29033811 8.07774742 6.32884818L8 6.33333333C7.65810944 6.33333333 7.37632856 6.07597321 7.33781849 5.74441408L7.33333333 5.66666667 7.33318358 2.312 5.89315141 3.79739577C5.65657177 4.04140401 5.27874861 4.0657327 5.01410951 3.86644909L4.95045498 3.81196732C4.68611272 3.55567271 4.67958882 3.13361315 4.93588343 2.86927089L7.52136601.202604226C7.52268034.201248624 7.52399662.199905534 7.52531482.198574896 7.645756.076187345 7.81398075 7.59392549e-14 8 7.59392549e-14z"/>
</svg>
