<svg xmlns="http://www.w3.org/2000/svg" width="16" height="16" viewBox="0 0 16 16">
  <g fill="none" fill-rule="evenodd">
    <path fill="#353438" fill-rule="nonzero" d="M7.98927498,8 C8.33116554,8 8.61294642,8.25736013 8.65145649,8.58891925 L8.65594165,8.66666667 L8.65600469,10.4259152 C8.98775156,10.4817898 9.30630552,10.5786967 9.60707256,10.711522 L10.5425539,9.22590081 C10.7386883,8.91427964 11.150289,8.82069599 11.4618898,9.01683037 C11.7512523,9.19895516 11.8526131,9.56686466 11.7085807,9.867979 L11.6709602,9.93616624 L10.7246431,11.4405174 C11.0101279,11.6993968 11.2626623,11.9979697 11.4748741,12.3280292 L13.0785257,11.7288059 C13.4234224,11.599926 13.8074942,11.7750423 13.936374,12.119939 C14.0560482,12.4402003 13.9136032,12.79424 13.6164997,12.9463715 L13.5452409,12.9777873 L12.0262343,13.5454752 C12.1291941,13.9026674 12.1914694,14.2785191 12.2074115,14.6667423 L15.3333333,14.6666667 C15.7015232,14.6666667 16,14.9651435 16,15.3333333 C16,15.6752239 15.7426399,15.9570048 15.4110808,15.9955148 L15.3333333,16 L0.666666667,16 C0.298476833,16 -1.77635684e-15,15.7015232 -1.77635684e-15,15.3333333 C-1.77635684e-15,14.9914428 0.257360127,14.7096619 0.58891925,14.6711518 L0.666666667,14.6666667 L3.77113843,14.6667423 C3.78708058,14.2785191 3.84935587,13.9026674 3.95231568,13.5454752 L2.43330909,12.9777873 C2.08841237,12.8489075 1.91329609,12.4648357 2.04217593,12.119939 C2.17105576,11.7750423 2.55512754,11.599926 2.90002425,11.7288059 L4.50367584,12.3280292 C4.71588763,11.9979697 4.96842206,11.6993968 5.25390684,11.4405174 L4.30758976,9.93616624 C4.11145537,9.62456544 4.20503902,9.21296475 4.5166602,9.01683037 C4.82826099,8.82069599 5.23986168,8.91427964 5.43599606,9.22590081 L6.37165737,10.7114425 C6.67216992,10.5787471 6.99043754,10.4819086 7.3218782,10.4260276 L7.32260831,8.66666667 C7.32260831,8.29847683 7.62108515,8 7.98927498,8 Z M7.98927498,11.7037037 C6.4656195,11.7037037 5.20021138,13.003942 5.10601054,14.6668726 L10.8725394,14.6668726 C10.7783386,13.003942 9.51293046,11.7037037 7.98927498,11.7037037 Z"/>
    <path fill="#353438" fill-rule="nonzero" d="M8,7.59392549e-14 C8.18633998,7.59392549e-14 8.35482403,0.0764502865 8.4757977,0.199696394 L8.48056168,0.204600746 L11.0445942,2.87126741 C11.2997862,3.1366743 11.2915054,3.55870305 11.0260985,3.81389501 C10.7811075,4.04945682 10.4026636,4.06052111 10.1451757,3.85207974 L10.0834709,3.79539925 L8.66651692,2.322 L8.66666667,5.66666667 C8.66666667,6.00855723 8.40930654,6.29033811 8.07774742,6.32884818 L8,6.33333333 C7.65810944,6.33333333 7.37632856,6.07597321 7.33781849,5.74441408 L7.33333333,5.66666667 L7.33318358,2.312 L5.89315141,3.79739577 C5.65657177,4.04140401 5.27874861,4.0657327 5.01410951,3.86644909 L4.95045498,3.81196732 C4.68611272,3.55567271 4.67958882,3.13361315 4.93588343,2.86927089 L7.52136601,0.202604226 C7.52268034,0.201248624 7.52399662,0.199905534 7.52531482,0.198574896 C7.645756,0.076187345 7.81398075,7.59392549e-14 8,7.59392549e-14 Z" transform="matrix(1 0 0 -1 0 6.333)"/>
  </g>
</svg>
