<?xml version="1.0" encoding="UTF-8" standalone="no"?>
<!DOCTYPE svg PUBLIC "-//W3C//DTD SVG 1.1//EN" "http://www.w3.org/Graphics/SVG/1.1/DTD/svg11.dtd">
<svg width="100%" height="100%" viewBox="0 0 14 14" version="1.1" style="fill-rule:evenodd;clip-rule:evenodd;stroke-linejoin:round;stroke-miterlimit:1.41421;">
    <g id="cross" transform="matrix(1,0,0,1,-455,-15)">
        <path d="M462,23.591L456.92,28.67C456.481,29.11 455.769,29.11 455.33,28.67C454.89,28.231 454.89,27.519 455.33,27.08L460.409,22L455.33,16.92C454.89,16.481 454.89,15.769 455.33,15.33C455.769,14.89 456.481,14.89 456.92,15.33L462,20.409L467.08,15.33C467.519,14.89 468.231,14.89 468.67,15.33C469.11,15.769 469.11,16.481 468.67,16.92L463.591,22L468.67,27.08C469.11,27.519 469.11,28.231 468.67,28.67C468.231,29.11 467.519,29.11 467.08,28.67L462,23.591Z"/>
    </g>
</svg>
