<svg xmlns="http://www.w3.org/2000/svg" width="24" height="24" viewBox="0 0 24 24">
  <path fill-rule="evenodd" d="M12,13.5909903 L6.92049513,18.6704951 C6.4811553,19.109835 5.7688447,19.109835 5.32950487,18.6704951 C4.89016504,18.2311553 4.89016504,17.5188447 5.32950487,17.0795049 L10.4090097,12 L5.32950487,6.92049513 C4.89016504,6.4811553 4.89016504,5.7688447 5.32950487,5.32950487 C5.7688447,4.89016504 6.4811553,4.89016504 6.92049513,5.32950487 L12,10.4090097 L17.0795049,5.32950487 C17.5188447,4.89016504 18.2311553,4.89016504 18.6704951,5.32950487 C19.109835,5.7688447 19.109835,6.4811553 18.6704951,6.92049513 L13.5909903,12 L18.6704951,17.0795049 C19.109835,17.5188447 19.109835,18.2311553 18.6704951,18.6704951 C18.2311553,19.109835 17.5188447,19.109835 17.0795049,18.6704951 L12,13.5909903 Z"/>
</svg>
