<?xml version="1.0" encoding="UTF-8" standalone="no"?>
<!DOCTYPE svg PUBLIC "-//W3C//DTD SVG 1.1//EN" "http://www.w3.org/Graphics/SVG/1.1/DTD/svg11.dtd">
<svg width="100%" height="100%" viewBox="0 0 18 18" version="1.1" style="fill-rule:evenodd;clip-rule:evenodd;stroke-linejoin:round;stroke-miterlimit:1.41421;">
    <g id="Icon" transform="matrix(1,0,0,1,-236,-9)">
        <path d="M248.742,20.237C249.625,19.032 250.098,17.576 250.092,16.081C250.075,12.182 246.921,9.023 243.021,9C241.155,8.992 239.362,9.73 238.044,11.051C236.725,12.371 235.989,14.164 236,16.031C236.017,19.931 239.171,23.09 243.072,23.113C244.572,23.119 246.034,22.64 247.239,21.748L247.244,21.744L252.168,26.671C252.434,26.95 252.831,27.063 253.204,26.966C253.578,26.869 253.869,26.577 253.966,26.204C254.063,25.83 253.949,25.433 253.67,25.167L248.742,20.237ZM243.066,21.701C239.947,21.683 237.423,19.156 237.409,16.036C237.401,14.543 237.99,13.109 239.044,12.052C240.099,10.996 241.533,10.405 243.025,10.411C246.145,10.429 248.669,12.956 248.683,16.076C248.691,17.569 248.102,19.003 247.047,20.06C245.993,21.116 244.559,21.707 243.066,21.701Z"/>
    </g>
</svg>
