<svg xmlns="http://www.w3.org/2000/svg" width="24" height="24" viewBox="0 0 24 24">
  <path fill-rule="evenodd" d="M22.5964925,20.7601922 L16.5731508,14.734256 C17.6528434,13.2616044 18.2312305,11.4812037 18.2231661,9.65515169 C18.202565,4.88855014 14.3473932,1.02761832 9.5810143,1.00008756 C7.30003332,0.98976703 5.10966344,1.89216273 3.4978571,3.50624643 C1.88605076,5.12033013 0.986697846,7.31202277 1.00014874,9.59307724 C1.0207499,14.3601127 4.87627346,18.2213963 9.6430863,18.2489271 C11.4765051,18.2568737 13.2633402,17.6717124 14.7369194,16.5807745 L14.7432052,16.57606 L20.7610469,22.5972816 C21.0864124,22.9386337 21.5712292,23.076805 22.0276535,22.9582606 C22.4840778,22.8397162 22.8403921,22.4830829 22.9585411,22.0265393 C23.0766902,21.5699958 22.9381095,21.0852783 22.5964925,20.7601922 L22.5964925,20.7601922 Z M9.63680053,16.5234146 C5.82355857,16.5014779 2.73918988,13.4127817 2.72245048,9.59936326 C2.71215845,7.77475602 3.43169998,6.02175404 4.72090228,4.73058245 C6.01010457,3.43941087 7.76196566,2.71723512 9.58651435,2.72481437 C13.3997563,2.74675098 16.484125,5.83544723 16.5008644,9.64886567 C16.5111564,11.4734729 15.7916149,13.2264749 14.5024126,14.5176465 C13.2132103,15.8088181 11.4613492,16.5309938 9.63680053,16.5234146 Z"/>
</svg>
